<svg id="visual" viewBox="0 0 900 600" width="900" height="600" xmlns="http://www.w3.org/2000/svg" xmlns:xlink="http://www.w3.org/1999/xlink" version="1.1"><rect x="0" y="0" width="900" height="600" fill="#001220"></rect><path d="M0 431L21.5 425.3C43 419.7 86 408.3 128.8 397.7C171.7 387 214.3 377 257.2 373C300 369 343 371 385.8 372.5C428.7 374 471.3 375 514.2 371.2C557 367.3 600 358.7 642.8 362.7C685.7 366.7 728.3 383.3 771.2 393C814 402.7 857 405.3 878.5 406.7L900 408L900 601L878.5 601C857 601 814 601 771.2 601C728.3 601 685.7 601 642.8 601C600 601 557 601 514.2 601C471.3 601 428.7 601 385.8 601C343 601 300 601 257.2 601C214.3 601 171.7 601 128.8 601C86 601 43 601 21.5 601L0 601Z" fill="#fa7268"></path><path d="M0 396L21.5 396.5C43 397 86 398 128.8 405.7C171.7 413.3 214.3 427.7 257.2 429.7C300 431.7 343 421.3 385.8 418.2C428.7 415 471.3 419 514.2 417.7C557 416.3 600 409.7 642.8 409.7C685.7 409.7 728.3 416.3 771.2 417.7C814 419 857 415 878.5 413L900 411L900 601L878.5 601C857 601 814 601 771.2 601C728.3 601 685.7 601 642.8 601C600 601 557 601 514.2 601C471.3 601 428.7 601 385.8 601C343 601 300 601 257.2 601C214.3 601 171.7 601 128.8 601C86 601 43 601 21.5 601L0 601Z" fill="#ef5f67"></path><path d="M0 462L21.5 468C43 474 86 486 128.8 485.2C171.7 484.3 214.3 470.7 257.2 469.7C300 468.7 343 480.3 385.8 484.5C428.7 488.7 471.3 485.3 514.2 480.7C557 476 600 470 642.8 464.2C685.7 458.3 728.3 452.7 771.2 449.5C814 446.3 857 445.7 878.5 445.3L900 445L900 601L878.5 601C857 601 814 601 771.2 601C728.3 601 685.7 601 642.8 601C600 601 557 601 514.2 601C471.3 601 428.7 601 385.8 601C343 601 300 601 257.2 601C214.3 601 171.7 601 128.8 601C86 601 43 601 21.5 601L0 601Z" fill="#e34c67"></path><path d="M0 486L21.5 493.3C43 500.7 86 515.3 128.8 514.5C171.7 513.7 214.3 497.3 257.2 490.5C300 483.7 343 486.3 385.8 495.3C428.7 504.3 471.3 519.7 514.2 519.2C557 518.7 600 502.3 642.8 497.3C685.7 492.3 728.3 498.7 771.2 503.5C814 508.3 857 511.7 878.5 513.3L900 515L900 601L878.5 601C857 601 814 601 771.2 601C728.3 601 685.7 601 642.8 601C600 601 557 601 514.2 601C471.3 601 428.7 601 385.8 601C343 601 300 601 257.2 601C214.3 601 171.7 601 128.8 601C86 601 43 601 21.5 601L0 601Z" fill="#d53867"></path><path d="M0 545L21.5 545.5C43 546 86 547 128.8 544.3C171.7 541.7 214.3 535.3 257.2 537C300 538.7 343 548.3 385.8 550.8C428.7 553.3 471.3 548.7 514.2 550.7C557 552.7 600 561.3 642.8 565.5C685.7 569.7 728.3 569.3 771.2 562.5C814 555.7 857 542.3 878.5 535.7L900 529L900 601L878.5 601C857 601 814 601 771.2 601C728.3 601 685.7 601 642.8 601C600 601 557 601 514.2 601C471.3 601 428.7 601 385.8 601C343 601 300 601 257.2 601C214.3 601 171.7 601 128.8 601C86 601 43 601 21.5 601L0 601Z" fill="#c62368"></path></svg>